<svg viewBoxSize="575" data-root-id="8762019402517" xmlns="http://www.w3.org/2000/svg" xmlns:xlink="http://www.w3.org/1999/xlink" viewBox="-0.0003528594970703125 0 286.14874267578125 350.5" height="230.00001525878906" width="187.76910400390625" y="125" x="193.615" preserveAspectRatio="xMinYMin" zoom="1" editorType="buyer" data-layer-role="icon" style="position: absolute; height: 230px; width: 187.769px; top: 125px; left: 193.615px;"><linearGradient id="linear-gradient" x1="2440.2" y1="-7053.76" x2="4498.86" y2="-5546.77" gradientTransform="translate(-150.34 -178.82) scale(.07 -.07)" gradientUnits="userSpaceOnUse" name="Layer %{number}" zoom="1" data-layer-id="9618376302518"><stop offset="0" stop-color="#8bc540"></stop><stop offset="1" stop-color="#063"></stop></linearGradient><linearGradient id="linear-gradient-2" x1="3336.94" y1="-6718.4" x2="5597.54" y2="-4193.63" gradientTransform="translate(-150.34 -178.82) scale(.07 -.07)" gradientUnits="userSpaceOnUse" name="Layer %{number}" zoom="1" data-layer-id="8228912102518"><stop offset="0" stop-color="#e47614"></stop><stop offset="1" stop-color="#ffe103"></stop></linearGradient><path id="Layer_1-2" dataName="Layer_1" d="m147.47,350.5H11.12c-6.05,0-12.05-5.52-11-12.04l18.45-115.28,115.59,13.51,13.3,113.81h0Z" fill="url(#linear-gradient)" fill-rule="evenodd" name="Layer %{number}" zoom="1" data-layer-id="7931586302518" style="fill: url(&quot;#linear-gradient&quot;);"></path><polygon id="Layer_1-2" dataName="Layer_1" points="147.47 350.5 134.5 350.5 122.56 248.3 16.54 235.91 18.57 223.18 134.17 236.69 147.47 350.5" fill="#288237" fill-rule="evenodd" name="Layer %{number}" zoom="1" data-layer-id="6223510602518" style="fill: rgb(40, 130, 55);"></polygon><path id="Layer_1-2" dataName="Layer_1" d="m47.52,99.05h191.11c6.05,0,9.96,5.52,11,12.04l36.4,227.37c1.04,6.52-4.95,12.04-11,12.04h-112.14l71.27-213.81L21.05,207.73l15.47-96.64c1.04-6.52,4.95-12.04,11-12.04h0Z" fill="url(#linear-gradient-2)" fill-rule="evenodd" name="Layer %{number}" zoom="1" data-layer-id="1369102802518" style="fill: url(&quot;#linear-gradient-2&quot;);"></path><polygon id="Layer_1-2" dataName="Layer_1" points="191.09 350.5 162.89 350.5 234.16 136.7 191.09 350.5" fill="#e47614" fill-rule="evenodd" name="Layer %{number}" zoom="1" data-layer-id="9572669602518" style="fill: rgb(228, 118, 20);"></polygon><path id="Layer_1-2" dataName="Layer_1" d="m143.08,19.91c-38.59,0-69.88,31.29-69.88,69.88h-19.92C53.28,40.2,93.48,0,143.07,0s89.8,40.2,89.8,89.8h-19.91c0-38.6-31.29-69.88-69.88-69.88h0Z" fill="#063" fill-rule="evenodd" name="Layer %{number}" zoom="1" data-layer-id="6383792902518" style="fill: rgb(0, 102, 51);"></path></svg>